<?xml version="1.0" encoding="UTF-8"?>
<!DOCTYPE svg PUBLIC "-//W3C//DTD SVG 1.1//EN" "http://www.w3.org/Graphics/SVG/1.1/DTD/svg11.dtd">
<svg version="1.1" xmlns="http://www.w3.org/2000/svg" xmlns:xlink="http://www.w3.org/1999/xlink" x="0" y="0" width="2600" height="1200" viewBox="0, 0, 2600, 1200">
  <g id="compass_letters">
    <text transform="matrix(0.721, -0.693, 0.693, 0.721, 1287.424, 267.032)">
      <tspan x="-119.7" y="97.316" font-family="JosefinSlab-Bold" font-size="280" fill="#F4F3F3">N</tspan>
    </text>
    <text transform="matrix(0.693, 0.721, -0.721, 0.693, 1957.039, 267.032)">
      <tspan x="-79.94" y="94.224" font-family="JosefinSlab-Bold" font-size="280" fill="#F4F3F3">E</tspan>
    </text>
    <text transform="matrix(-0.721, 0.693, -0.693, -0.721, 1955.039, 937.474)">
      <tspan x="-66.92" y="91.661" font-family="JosefinSlab-Bold" font-size="280" fill="#F4F3F3">S</tspan>
    </text>
    <text transform="matrix(-0.693, -0.721, 0.721, -0.693, 1285.424, 930.474)">
      <tspan x="-164.92" y="94.863" font-family="JosefinSlab-Bold" font-size="280" fill="#F4F3F3">W</tspan>
    </text>
  </g>
  <g id="point">
    <path d="M1380.287,700.1 C1419.291,795.21 1512.806,862.199 1621.967,862.199 C1731.561,862.199 1825.385,794.677 1864.108,698.965" fill-opacity="0" stroke="#6A6868" stroke-width="12"/>
    <path d="M1384.234,493.657 C1425.31,403.325 1516.341,340.516 1622.042,340.516 C1724.281,340.516 1812.795,399.278 1855.654,484.871 C1855.654,484.871 1855.654,484.871 1855.654,484.871" fill-opacity="0" stroke="#6A6868" stroke-width="12"/>
    <path d="M1231.81,211.388 L1612.607,481.69 L1612.607,592.185 L1502.112,592.185 L1231.81,211.388 z" fill="#D66036"/>
    <path d="M2011.272,990.85 L1630.475,720.548 L1630.475,610.053 L1740.97,610.053 L2011.272,990.85 z" fill="#4C73A6"/>
    <path d="M1231.81,990.85 L1612.607,720.548 L1612.607,610.053 L1502.112,610.053 L1231.81,990.85 z" fill="#E4CE34"/>
    <path d="M2011.272,211.388 L1630.475,481.69 L1630.475,592.185 L1740.97,592.185 L2011.272,211.388 z" fill="#88BB5F"/>
    <path d="M1231.81,211.388 L1612.607,481.69 L1612.607,592.185 L1231.81,211.388 z" fill="#AC441F"/>
    <path d="M2011.272,211.388 L1630.475,592.185 L1740.97,592.185 L2011.272,211.388 z" fill="#65973C"/>
    <path d="M2011.272,990.85 L1630.475,720.548 L1630.475,610.053 L2011.272,990.85 z" fill="#335683"/>
    <path d="M1231.81,990.85 L1612.607,610.053 L1502.112,610.053 L1231.81,990.85 z" fill="#BEAB26"/>
  </g>
  <g id="words">
    <path d="M429.198,408.836 L429.198,356.1 Q409.742,344.836 387.726,338.948 Q365.71,333.06 342.67,333.06 Q306.318,333.06 274.318,347.14 Q242.318,361.22 218.51,385.284 Q194.702,409.348 180.878,441.604 Q167.054,473.86 167.054,510.212 Q167.054,546.564 180.878,578.308 Q194.702,610.052 218.254,633.86 Q241.806,657.668 273.55,671.492 Q305.294,685.316 341.134,685.316 Q365.71,685.316 388.494,678.916 Q411.278,672.516 431.246,660.74 L435.854,666.884 Q415.374,678.66 392.078,685.572 Q368.782,692.484 342.67,692.484 Q304.782,692.484 271.502,678.148 Q238.222,663.812 213.39,638.98 Q188.558,614.148 174.222,580.868 Q159.886,547.588 159.886,509.7 Q159.886,471.812 174.222,438.276 Q188.558,404.74 213.39,379.908 Q238.222,355.076 271.502,340.484 Q304.782,325.892 342.67,325.892 Q368.782,325.892 392.078,332.548 Q415.374,339.204 436.366,351.492 L436.366,408.836 z" fill="#000000"/>
    <path d="M472.718,592.132 Q472.718,571.652 480.398,553.22 Q488.078,534.788 501.646,521.22 Q515.214,507.652 533.134,499.716 Q551.054,491.78 572.046,491.78 Q592.526,491.78 610.958,499.716 Q629.39,507.652 642.958,521.22 Q656.526,534.788 664.462,553.22 Q672.398,571.652 672.398,592.132 Q672.398,613.124 664.462,631.044 Q656.526,648.964 642.958,662.532 Q629.39,676.1 610.958,683.78 Q592.526,691.46 572.046,691.46 Q551.054,691.46 533.134,683.78 Q515.214,676.1 501.646,662.532 Q488.078,648.964 480.398,631.044 Q472.718,613.124 472.718,592.132 z M479.886,592.132 Q479.886,611.588 487.054,628.228 Q494.222,644.868 506.766,657.412 Q519.31,669.956 535.95,677.124 Q552.59,684.292 572.046,684.292 Q590.99,684.292 607.886,677.124 Q624.782,669.956 637.582,657.412 Q650.382,644.868 657.55,628.228 Q664.718,611.588 664.718,592.132 Q664.718,573.188 657.55,556.292 Q650.382,539.396 637.582,526.596 Q624.782,513.796 607.886,506.628 Q590.99,499.46 572.046,499.46 Q552.59,499.46 535.95,506.628 Q519.31,513.796 506.766,526.596 Q494.222,539.396 487.054,556.292 Q479.886,573.188 479.886,592.132 z" fill="#000000"/>
    <path d="M850.574,681.22 L891.022,681.22 L891.022,546.564 Q889.998,528.132 877.454,514.564 Q864.91,500.996 842.382,499.972 Q824.974,499.972 809.358,505.604 Q793.742,511.236 781.71,521.22 Q769.678,531.204 762.766,545.284 Q755.854,559.364 755.854,575.748 L755.854,681.22 L797.326,681.22 L797.326,688.388 L708.238,688.388 L708.238,681.22 L748.686,681.22 L748.686,503.556 L710.286,503.556 L710.286,496.388 L752.782,496.388 L753.806,523.524 Q753.806,530.18 754.062,535.044 Q754.318,539.908 754.318,546.564 Q764.558,522.5 787.086,507.652 Q809.614,492.804 838.798,492.804 Q865.934,492.804 881.55,508.676 Q897.166,524.548 898.19,550.148 L898.19,681.22 L939.662,681.22 L939.662,688.388 L850.574,688.388 z" fill="#000000"/>
    <path d="M1117.838,681.22 L1158.286,681.22 L1158.286,546.564 Q1157.262,528.132 1144.718,514.564 Q1132.174,500.996 1109.646,499.972 Q1092.238,499.972 1076.622,505.604 Q1061.006,511.236 1048.974,521.22 Q1036.942,531.204 1030.03,545.284 Q1023.118,559.364 1023.118,575.748 L1023.118,681.22 L1064.59,681.22 L1064.59,688.388 L975.502,688.388 L975.502,681.22 L1015.95,681.22 L1015.95,503.556 L977.55,503.556 L977.55,496.388 L1020.046,496.388 L1021.07,523.524 Q1021.07,530.18 1021.326,535.044 Q1021.582,539.908 1021.582,546.564 Q1031.822,522.5 1054.35,507.652 Q1076.878,492.804 1106.062,492.804 Q1133.198,492.804 1148.814,508.676 Q1164.43,524.548 1165.454,550.148 L1165.454,681.22 L1206.926,681.22 L1206.926,688.388 L1117.838,688.388 z" fill="#000000"/>
    <path d="M1342.094,499.46 Q1319.054,499.46 1299.854,509.956 Q1280.654,520.452 1268.11,537.348 Q1255.566,554.244 1251.214,575.748 Q1246.862,597.252 1253.518,619.268 Q1294.99,602.372 1336.462,585.732 Q1377.934,569.092 1419.406,552.196 Q1409.166,528.644 1388.43,514.052 Q1367.694,499.46 1342.094,499.46 z M1428.622,555.78 Q1385.102,573.7 1342.35,590.852 Q1299.598,608.004 1256.078,625.924 Q1266.318,652.036 1289.358,668.164 Q1312.398,684.292 1342.094,684.292 Q1360.526,684.292 1376.91,677.636 Q1393.294,670.98 1405.582,659.204 Q1406.606,660.74 1407.886,662.02 Q1409.166,663.3 1410.19,664.836 Q1396.878,677.124 1379.47,684.292 Q1362.062,691.46 1342.094,691.46 Q1321.102,691.46 1303.182,683.78 Q1285.262,676.1 1271.694,662.532 Q1258.126,648.964 1250.446,631.044 Q1242.766,613.124 1242.766,592.132 Q1242.766,571.652 1250.446,553.22 Q1258.126,534.788 1271.694,521.476 Q1285.262,508.164 1303.182,500.228 Q1321.102,492.292 1342.094,492.292 Q1371.79,492.292 1395.086,509.956 Q1418.382,527.62 1428.622,555.78 z" fill="#000000"/>
    <path d="M1847.73,681.22 L1889.714,681.22 L1889.714,503.556 L1847.73,503.556 L1847.73,496.388 L1896.882,496.388 L1896.882,681.22 L1936.818,681.22 L1936.818,688.388 L1847.73,688.388 z" fill="#000000"/>
    <path d="M1883.058,450.388 Q1883.058,454.484 1886.13,457.556 Q1889.202,460.628 1893.298,460.628 Q1897.394,460.628 1900.466,457.556 Q1903.538,454.484 1903.538,450.388 Q1903.538,446.292 1900.466,443.22 Q1897.394,440.148 1893.298,440.148 Q1889.202,440.148 1886.13,443.22 Q1883.058,446.292 1883.058,450.388 z" fill="#000000"/>
    <path d="M1973.17,592.132 Q1973.17,571.652 1980.85,553.22 Q1988.53,534.788 2002.098,521.22 Q2015.666,507.652 2033.586,499.716 Q2051.506,491.78 2072.498,491.78 Q2092.978,491.78 2111.41,499.716 Q2129.842,507.652 2143.41,521.22 Q2156.978,534.788 2164.914,553.22 Q2172.85,571.652 2172.85,592.132 Q2172.85,613.124 2164.914,631.044 Q2156.978,648.964 2143.41,662.532 Q2129.842,676.1 2111.41,683.78 Q2092.978,691.46 2072.498,691.46 Q2051.506,691.46 2033.586,683.78 Q2015.666,676.1 2002.098,662.532 Q1988.53,648.964 1980.85,631.044 Q1973.17,613.124 1973.17,592.132 z M1980.338,592.132 Q1980.338,611.588 1987.506,628.228 Q1994.674,644.868 2007.218,657.412 Q2019.762,669.956 2036.402,677.124 Q2053.042,684.292 2072.498,684.292 Q2091.442,684.292 2108.338,677.124 Q2125.234,669.956 2138.034,657.412 Q2150.834,644.868 2158.002,628.228 Q2165.17,611.588 2165.17,592.132 Q2165.17,573.188 2158.002,556.292 Q2150.834,539.396 2138.034,526.596 Q2125.234,513.796 2108.338,506.628 Q2091.442,499.46 2072.498,499.46 Q2053.042,499.46 2036.402,506.628 Q2019.762,513.796 2007.218,526.596 Q1994.674,539.396 1987.506,556.292 Q1980.338,573.188 1980.338,592.132 z" fill="#000000"/>
    <path d="M2351.026,681.22 L2391.474,681.22 L2391.474,546.564 Q2390.45,528.132 2377.906,514.564 Q2365.362,500.996 2342.834,499.972 Q2325.426,499.972 2309.81,505.604 Q2294.194,511.236 2282.162,521.22 Q2270.13,531.204 2263.218,545.284 Q2256.306,559.364 2256.306,575.748 L2256.306,681.22 L2297.778,681.22 L2297.778,688.388 L2208.69,688.388 L2208.69,681.22 L2249.138,681.22 L2249.138,503.556 L2210.738,503.556 L2210.738,496.388 L2253.234,496.388 L2254.258,523.524 Q2254.258,530.18 2254.514,535.044 Q2254.77,539.908 2254.77,546.564 Q2265.01,522.5 2287.538,507.652 Q2310.066,492.804 2339.25,492.804 Q2366.386,492.804 2382.002,508.676 Q2397.618,524.548 2398.642,550.148 L2398.642,681.22 L2440.114,681.22 L2440.114,688.388 L2351.026,688.388 z" fill="#000000"/>
    <path d="M534.129,365.642 L534.129,355.15 Q525.529,351.366 516.241,351.366 Q506.437,351.366 497.923,355.15 Q489.409,358.934 482.959,365.556 Q476.509,372.178 472.811,380.95 Q469.113,389.722 469.113,399.526 Q469.113,409.33 472.811,418.102 Q476.509,426.874 482.959,433.324 Q489.409,439.774 497.923,443.558 Q506.437,447.342 516.241,447.342 Q528.969,447.342 539.805,440.978 L547.545,452.33 Q540.665,456.286 532.839,458.608 Q525.013,460.93 516.241,460.93 Q503.513,460.93 492.333,456.114 Q481.153,451.298 472.811,442.956 Q464.469,434.614 459.653,423.434 Q454.837,412.254 454.837,399.526 Q454.837,386.798 459.653,375.532 Q464.469,364.266 472.811,355.924 Q481.153,347.582 492.333,342.68 Q503.513,337.778 516.241,337.778 Q525.013,337.778 532.839,340.014 Q540.665,342.25 547.717,346.378 L547.717,365.642 z" fill="#868484"/>
    <path d="M559.757,445.966 L573.861,445.966 Q585.729,417.586 597.683,389.808 Q609.637,362.03 621.505,333.65 Q633.373,362.03 645.327,389.808 Q657.281,417.586 669.149,445.966 L683.253,445.966 L683.253,459.554 L645.069,459.554 L645.069,445.966 L654.701,445.966 Q651.089,437.366 647.563,428.938 Q644.037,420.51 640.425,411.91 L602.585,411.91 L588.137,445.966 L597.941,445.966 L597.941,459.554 L559.757,459.554 z M623.053,370.974 L621.333,365.298 Q621.161,365.642 620.989,366.502 Q620.817,367.362 620.473,368.394 Q620.129,369.598 619.613,370.974 Q617.377,375.962 615.485,380.778 Q613.765,384.906 611.873,389.722 Q609.981,394.538 608.433,398.322 L634.577,398.322 z" fill="#868484"/>
    <path d="M831.861,339.154 L851.125,339.154 L851.125,352.742 L836.161,352.742 L836.161,445.966 L851.125,445.966 L851.125,459.554 L809.501,459.554 L809.501,445.966 L821.885,445.966 L821.885,378.714 Q822.057,377.338 822.143,375.962 Q822.229,374.586 822.401,373.21 Q821.025,375.102 819.649,377.166 Q818.273,379.23 816.897,381.122 Q806.577,395.742 795.311,409.76 Q784.045,423.778 773.209,438.054 L727.113,377.854 L724.017,373.21 Q724.189,374.586 724.275,375.962 Q724.361,377.338 724.533,378.714 L724.533,445.966 L736.917,445.966 L736.917,459.554 L695.293,459.554 L695.293,445.966 L710.257,445.966 L710.257,352.742 L695.293,352.742 L695.293,339.154 L714.557,339.154 Q729.349,358.246 743.883,377.252 Q758.417,396.258 773.209,415.35 Q788.001,396.258 802.535,377.252 Q817.069,358.246 831.861,339.154 z" fill="#868484"/>
    <path d="M863.165,445.966 L870.905,445.966 L870.905,352.742 L863.165,352.742 L863.165,339.154 L899.285,339.154 Q905.133,339.154 912.271,340.96 Q919.409,342.766 925.601,346.722 Q931.793,350.678 935.921,356.87 Q940.049,363.062 940.049,371.834 Q940.049,387.486 930.761,396.688 Q921.473,405.89 903.929,405.89 L885.181,405.89 L885.181,445.966 L904.789,445.966 L904.789,459.554 L863.165,459.554 z M885.181,392.13 L900.145,392.13 Q907.713,392.13 912.615,390.152 Q917.517,388.174 920.441,385.25 Q923.365,382.326 924.569,378.714 Q925.773,375.102 925.773,371.834 Q925.773,368.05 923.795,364.61 Q921.817,361.17 918.463,358.504 Q915.109,355.838 910.379,354.29 Q905.649,352.742 900.317,352.742 L885.181,352.742 z" fill="#868484"/>
  </g>
</svg>
