<?xml version="1.0" encoding="UTF-8"?>
<!DOCTYPE svg PUBLIC "-//W3C//DTD SVG 1.1//EN" "http://www.w3.org/Graphics/SVG/1.1/DTD/svg11.dtd">
<svg version="1.1" xmlns="http://www.w3.org/2000/svg" xmlns:xlink="http://www.w3.org/1999/xlink" x="0" y="0" id="ne" viewBox="0, 0, 342, 566">
  <g>
    <path d="M152.328,513.86 L150.644,498.944 L147.826,483.455 L141.91,462.521 L161.911,457.076 L167.543,461.088 L179.377,476.578 L189.514,492.349 L179.37,497.802 L174.861,497.225 L170.919,503.537 L162.469,510.422 L152.328,513.86 z" id="RI"/>
    <path d="M151.018,514.86 L147.645,499.944 L144.827,484.455 L139.195,463.235 L121.168,467.254 L45.109,484.169 L47.364,495.929 L52.433,521.738 L52.433,550.417 L48.49,558.445 L54.876,565.925 L72.144,553.862 L84.537,542.391 L91.3,534.934 L94.119,537.226 L103.695,532.069 L121.719,528.048 L151.018,514.86 z" id="CT"/>
    <path d="M243.612,490.673 L251.18,488.239 L252.774,482.155 L256.359,482.561 L259.945,490.672 L255.562,492.292 L242.017,492.698 L243.612,490.673 z M210.945,493.512 L218.914,484.181 L224.492,484.181 L230.863,489.453 L222.499,493.105 L214.929,496.753 L210.945,493.512 z M89.672,415.501 L150.519,400.589 L158.403,398.293 L165.728,386.822 L178.75,380.925 L188.817,396.58 L180.37,414.931 L179.241,420.093 L186.002,429.271 L189.947,426.405 L196.142,426.405 L204.029,435.579 L217.552,456.804 L229.945,458.523 L237.834,455.081 L244.029,448.773 L241.214,439.023 L233.889,433.284 L228.82,436.157 L225.439,431.564 L227.13,429.845 L234.451,429.272 L240.649,432.138 L247.411,440.742 L250.79,451.064 L251.916,459.669 L237.27,464.83 L223.748,471.711 L210.227,487.774 L203.466,492.932 L203.466,489.494 L211.917,484.329 L213.606,478.023 L210.791,467.127 L200.65,472.286 L197.831,477.451 L199.524,485.478 L189.949,490.636 L180.376,474.578 L168.542,459.088 L162.91,455.076 L142.909,460.521 L125.166,464.253 L49.109,481.169 L45.729,460.808 L47.983,423.245 L66.01,420.087 L89.672,415.501" id="MA"/>
    <path d="M326.866,144.609 L333.629,152.063 L341.516,165.256 L341.516,172.137 L334.192,188.772 L327.43,191.064 L315.6,201.961 L298.699,221.462 C298.699,221.462 296.447,221.462 294.193,221.462 C291.938,221.462 290.81,214.004 290.81,214.004 L284.616,214.577 L281.233,219.742 L272.783,224.901 L269.403,230.066 L275.038,235.224 L273.347,237.521 L271.658,247.271 L264.897,246.698 L264.897,240.963 L263.769,236.375 L258.701,237.522 L252.503,226.051 L245.178,230.639 L249.688,235.802 L250.814,239.818 L247.995,244.403 L249.126,255.3 L249.689,261.038 L244.053,270.215 L233.912,271.935 L232.783,282.259 L214.192,293.156 L209.683,294.876 L204.051,289.717 L193.348,302.333 L196.726,313.804 L191.656,318.393 L191.092,333.878 L185.598,360.916 L177.017,356.814 L175.327,345.918 L161.806,341.902 L160.678,332.151 L135.325,248.988 L118.718,196.57 L127.229,195.347 L132.503,196.803 L132.503,187.626 L135.319,168.126 L144.334,151.49 L149.404,137.154 L142.643,128.55 L142.643,107.329 L145.462,103.887 L148.277,94.138 L147.715,88.976 L147.151,71.768 L153.347,54.561 L163.489,23.017 L170.81,8.105 L175.32,8.105 L179.825,8.678 L179.825,12.694 L184.334,20.723 L193.911,23.016 L196.726,20.149 L196.726,16.707 L210.809,6.383 L217.007,0.075 L222.08,0.648 L242.923,9.251 L249.685,12.694 L281.232,118.798 L302.078,118.798 L304.896,125.682 L305.459,142.884 L315.6,150.915 L318.415,150.915 L318.979,149.195 L317.289,145.183 L326.866,144.609 z M253.92,251.568 L259.274,246.116 L264.061,249.848 L266.035,258.449 L260.12,261.605 L253.92,251.568 z M277.301,230.634 L283.5,237.229 C283.5,237.229 288.004,237.516 288.004,236.366 C288.004,235.219 288.851,229.201 288.851,229.201 L291.951,226.329 L289.136,220.024 L282.091,222.603 L277.301,230.634 z" id="ME"/>
    <path d="M178.753,378.784 L179.803,373.359 L183.603,361.682 L174.743,358.44 L173.053,347.544 L159.532,343.528 L158.404,333.777 L133.051,250.614 L117.016,199.015 L113.892,199.002 L111.638,204.733 L109.386,203.014 L106.006,199.575 L100.935,206.456 L97.602,225.92 L98.688,246.024 L105.448,255.774 L105.448,270.113 L92.491,284.449 L83.477,288.468 L83.477,292.48 L87.418,298.792 L87.418,329.19 L84.603,361.879 L84.039,379.085 L87.419,383.674 L86.858,399.732 L85.167,406.041 L90.238,413.212 L150.52,398.587 L158.404,396.291 L165.729,384.82 L178.753,378.784 z" id="NH"/>
    <path d="M46.108,421.23 L43.292,401.155 L32.589,362.154 L30.336,361.007 L20.192,356.419 L23.011,346.095 L20.192,338.641 L11.182,322.578 L14.56,308.816 L11.745,290.461 L3.294,267.521 L0.484,250.053 L95.121,224.507 L96.25,245.151 L103.01,254.901 L103.01,269.24 L90.053,283.576 L81.039,287.595 L81.039,291.607 L84.98,297.919 L84.98,328.317 L82.165,361.006 L81.601,378.212 L84.981,382.801 L84.42,398.859 L82.729,405.168 L87.8,412.339 L63.573,417.212 L46.108,421.23 z" id="VT"/>
  </g>
</svg>
